<?xml version="1.0" encoding="utf-8"?>
<!DOCTYPE svg PUBLIC "-//W3C//DTD SVG 1.1//EN" "http://www.w3.org/Graphics/SVG/1.1/DTD/svg11.dtd">
<svg version="1.1" id="middle_1_" xmlns="http://www.w3.org/2000/svg" xmlns:xlink="http://www.w3.org/1999/xlink" x="0px" y="0px"
	 width="453.543px" height="90.708px" viewBox="0 0 453.543 90.708" enable-background="new 0 0 453.543 90.708"
	 xml:space="preserve">
<path fill="none" stroke="#000000" stroke-width="0.25" stroke-miterlimit="10" d="M299.055,17.009l-2.833-2.835H2.835l-2.834,2.835
	V87.87l2.83,2.838l293.391,0.002l2.834-2.834L299.055,17.009z"/>
<path fill="none" stroke="#000000" stroke-width="0.25" stroke-miterlimit="10" d="M286.3,70.868c0,1.559-1.275,2.834-2.834,2.834
	H19.844c-1.559,0-2.834-1.275-2.834-2.834V31.182c0-1.559,1.275-2.834,2.834-2.834h263.622c1.559,0,2.834,1.275,2.834,2.834V70.868
	L286.3,70.868z"/>
<path fill="none" stroke="#000000" stroke-width="0.25" stroke-miterlimit="10" d="M4.253,69.377c0,2.35,1.902,4.254,4.252,4.254
	c2.347,0,4.252-1.904,4.252-4.254v-31.89c0-2.348-1.904-4.25-4.252-4.25c-2.347,0-4.251,1.903-4.251,4.25L4.253,69.377L4.253,69.377
	z"/>
<circle fill="none" stroke="#000000" stroke-width="0.25" stroke-miterlimit="10" cx="290.551" cy="24.661" r="2.835"/>
<circle fill="none" stroke="#000000" stroke-width="0.25" stroke-miterlimit="10" cx="290.551" cy="82.205" r="2.835"/>
<circle fill="none" stroke="#000000" stroke-width="0.25" stroke-miterlimit="10" cx="8.504" cy="24.661" r="2.835"/>
<circle fill="none" stroke="#000000" stroke-width="0.25" stroke-miterlimit="10" cx="8.504" cy="82.205" r="2.835"/>
</svg>
