<?xml version="1.0" encoding="utf-8"?>
<!DOCTYPE svg PUBLIC "-//W3C//DTD SVG 1.1//EN" "http://www.w3.org/Graphics/SVG/1.1/DTD/svg11.dtd">
<svg version="1.1" id="pcb" xmlns="http://www.w3.org/2000/svg" xmlns:xlink="http://www.w3.org/1999/xlink" x="0px" y="0px"
	 width="453.543px" height="90.708px" viewBox="0 0 453.543 90.708" enable-background="new 0 0 453.543 90.708"
	 xml:space="preserve">
<path fill="none" stroke="#000000" stroke-width="0.25" stroke-miterlimit="10" d="M451.276,51.449c1.253,0,2.269-1.015,2.269-2.268
	c0,0,0,0,0-0.001l0.001-46.345L450.71,0H2.836L0,2.836v85.04l2.835,2.834H450.71l2.834-2.834l-0.001-12.33
	c0.001-1.254-1.016-2.269-2.268-2.269c-0.001,0-0.001,0-0.001,0h-11.054c-1.252-0.001-2.269-1.016-2.269-2.269V53.717h-0.002
	c0.001-1.254,1.017-2.269,2.27-2.269H451.276z"/>
<path fill="none" stroke="#000000" stroke-width="0.25" stroke-miterlimit="10" d="M4.253,69.377c0,2.35,1.902,4.254,4.252,4.254
	c2.347,0,4.252-1.904,4.252-4.254v-31.89c0-2.348-1.904-4.25-4.252-4.25c-2.347,0-4.251,1.903-4.251,4.25L4.253,69.377L4.253,69.377
	z"/>
<circle fill="none" stroke="#000000" stroke-width="0.25" stroke-miterlimit="10" cx="8.504" cy="24.661" r="2.835"/>
<circle fill="none" stroke="#000000" stroke-width="0.25" stroke-miterlimit="10" cx="290.551" cy="24.661" r="2.835"/>
<circle fill="none" stroke="#000000" stroke-width="0.25" stroke-miterlimit="10" cx="290.551" cy="82.205" r="2.835"/>
<circle fill="none" stroke="#000000" stroke-width="0.25" stroke-miterlimit="10" cx="8.504" cy="82.205" r="2.835"/>
</svg>
