<?xml version="1.0" encoding="utf-8"?>
<!DOCTYPE svg PUBLIC "-//W3C//DTD SVG 1.1//EN" "http://www.w3.org/Graphics/SVG/1.1/DTD/svg11.dtd">
<svg version="1.1" id="top" xmlns="http://www.w3.org/2000/svg" xmlns:xlink="http://www.w3.org/1999/xlink" x="0px" y="0px"
	 width="453.543px" height="90.708px" viewBox="0 0 453.543 90.708" enable-background="new 0 0 453.543 90.708"
	 xml:space="preserve">
<path fill="none" stroke="#000000" stroke-width="0.25" stroke-miterlimit="10" d="M299.055,17.009l-2.833-2.835H2.835l-2.834,2.835
	V87.87l2.83,2.838l293.391,0.002l2.834-2.834L299.055,17.009z"/>
<path fill="none" stroke="#000000" stroke-width="0.25" stroke-miterlimit="10" d="M61.087,70.866H21.402V31.182h39.688
	L61.087,70.866L61.087,70.866z"/>
<path fill="none" stroke="#000000" stroke-width="0.25" stroke-miterlimit="10" d="M115.087,70.866H75.401V31.181h39.687V70.866z"/>
<path fill="none" stroke="#000000" stroke-width="0.25" stroke-miterlimit="10" d="M169.087,70.866H129.4V31.182h39.688V70.866z"/>
<path fill="none" stroke="#000000" stroke-width="0.25" stroke-miterlimit="10" d="M223.087,70.866H183.4V31.181h39.688V70.866z"/>
<path fill="none" stroke="#000000" stroke-width="0.25" stroke-miterlimit="10" d="M277.087,70.866h-39.687V31.182h39.688
	L277.087,70.866z"/>
<path fill="none" stroke="#000000" stroke-width="0.25" stroke-miterlimit="10" d="M4.253,69.377c0,2.35,1.901,4.254,4.252,4.254
	c2.347,0,4.252-1.904,4.252-4.254V37.487c0-2.348-1.904-4.25-4.252-4.25c-2.347,0-4.251,1.903-4.251,4.25L4.253,69.377L4.253,69.377
	z"/>
<circle fill="none" stroke="#000000" stroke-width="0.25" stroke-miterlimit="10" cx="290.551" cy="24.661" r="2.835"/>
<circle fill="none" stroke="#000000" stroke-width="0.25" stroke-miterlimit="10" cx="290.551" cy="82.205" r="2.835"/>
<circle fill="none" stroke="#000000" stroke-width="0.25" stroke-miterlimit="10" cx="8.504" cy="24.661" r="2.835"/>
<circle fill="none" stroke="#000000" stroke-width="0.25" stroke-miterlimit="10" cx="8.504" cy="82.205" r="2.835"/>
</svg>
